Coordinates
version=1
nRows=20
nColumns=38
inDegrees=no

Units are S.I. units (second, meters, Newtons, ...)
If the header above contains a line with 'inDegrees', this indicates whether rotational values are in degrees (yes) or radians (no).

endheader
time	pelvis_tilt	pelvis_list	pelvis_rotation	pelvis_tx	pelvis_ty	pelvis_tz	hip_flexion_r	hip_adduction_r	hip_rotation_r	knee_angle_r	ankle_angle_r	subtalar_angle_r	mtp_angle_r	hip_flexion_l	hip_adduction_l	hip_rotation_l	knee_angle_l	ankle_angle_l	subtalar_angle_l	mtp_angle_l	lumbar_extension	lumbar_bending	lumbar_rotation	arm_flex_r	arm_add_r	arm_rot_r	elbow_flex_r	pro_sup_r	wrist_flex_r	wrist_dev_r	arm_flex_l	arm_add_l	arm_rot_l	elbow_flex_l	pro_sup_l	wrist_flex_l	wrist_dev_l
0	-0.194551	1.33936	-1.34808	1.06836	1.46013	0.933906	-0.442266	0.0153838	-0.10769	0.605854	-0.297652	0	0	0.0791074	-0.101959	-0.472482	0.409229	-0.288998	0	0	-0.366519	0.0744456	-0.0549307	-0.0662152	-0.0712852	-0.612786	0.562683	0.63911	0	0	-0.194936	-0.263053	0.100306	0.681693	1.43782	0	0
0.01	-0.176876	1.34457	-1.36071	1.06993	1.45012	0.935807	-0.41089	0.00509002	-0.101431	0.664647	-0.334019	0	0	0.0626697	-0.0676561	-0.387559	0.359809	-0.284132	0	0	-0.359794	0.0701711	-0.0557594	-0.0656554	-0.0690987	-0.62627	0.551653	0.650638	0	0	-0.184277	-0.265926	0.112433	0.668379	1.43671	0	0
0.02	-0.145208	1.33744	-1.38689	1.07141	1.43973	0.937888	-0.396532	-0.00549261	-0.10114	0.715142	-0.374304	0	0	0.0409862	-0.0598531	-0.38506	0.355629	-0.283596	0	0	-0.367248	0.0655992	-0.0626734	-0.0692424	-0.0645437	-0.633855	0.556708	0.659809	0	0	-0.184768	-0.272596	0.118414	0.674754	1.43247	0	0
0.03	-0.134788	1.33819	-1.38899	1.07264	1.42953	0.93924	-0.368541	-0.0107103	-0.101211	0.771219	-0.41824	0	0	0.0308304	-0.0564633	-0.375603	0.356378	-0.278722	0	0	-0.366102	0.0646067	-0.0720549	-0.0706377	-0.0599503	-0.64124	0.557478	0.66844	0	0	-0.184664	-0.280231	0.125632	0.680268	1.42583	0	0
0.04	-0.118531	1.34106	-1.3992	1.07478	1.41851	0.940444	-0.338162	-0.0223566	-0.106407	0.826721	-0.458678	0	0	0.0184039	-0.0498345	-0.377215	0.352386	-0.272929	0	0	-0.360374	0.0628562	-0.0814929	-0.07371	-0.0585229	-0.646316	0.557512	0.678521	0	0	-0.185073	-0.284063	0.132792	0.681626	1.42125	0	0
0.05	-0.103319	1.34478	-1.40978	1.07676	1.40773	0.941356	-0.304814	-0.0345559	-0.110206	0.883538	-0.490762	0	0	0.00645254	-0.0438213	-0.380723	0.348497	-0.265939	0	0	-0.354091	0.0608659	-0.0903792	-0.0770577	-0.0572731	-0.64932	0.559443	0.688604	0	0	-0.185796	-0.288125	0.13903	0.685225	1.41917	0	0
0.06	-0.0898597	1.34745	-1.42043	1.07851	1.3972	0.942184	-0.273287	-0.0456187	-0.112179	0.933593	-0.521981	0	0	-0.00695711	-0.0388011	-0.384287	0.344251	-0.257859	0	0	-0.34945	0.0588704	-0.0979249	-0.079826	-0.0561792	-0.651639	0.562621	0.697364	0	0	-0.186794	-0.293447	0.144852	0.692407	1.41353	0	0
0.07	-0.0798693	1.35027	-1.42903	1.07997	1.38706	0.94292	-0.238368	-0.0546845	-0.109209	0.989756	-0.546504	0	0	-0.0193844	-0.0353956	-0.386111	0.340902	-0.249444	0	0	-0.345599	0.0570067	-0.103832	-0.0814632	-0.0554574	-0.653231	0.565372	0.704796	0	0	-0.186321	-0.299178	0.150905	0.700361	1.40741	0	0
0.08	-0.0737676	1.35148	-1.43351	1.08127	1.37722	0.9438	-0.207055	-0.0616878	-0.109089	1.03455	-0.566881	0	0	-0.0327606	-0.0339444	-0.386341	0.337324	-0.243102	0	0	-0.344178	0.0561061	-0.109516	-0.0820304	-0.0550549	-0.653735	0.567572	0.710042	0	0	-0.184184	-0.304575	0.155903	0.708208	1.40544	0	0
0.09	-0.0717479	1.35241	-1.43392	1.0825	1.36773	0.94477	-0.173978	-0.0676095	-0.108177	1.08087	-0.572377	0	0	-0.045665	-0.0338998	-0.385609	0.332947	-0.238123	0	0	-0.343884	0.0560679	-0.114728	-0.0816436	-0.0552544	-0.653385	0.568785	0.714968	0	0	-0.179704	-0.309145	0.160267	0.714768	1.40639	0	0
0.1	-0.073409	1.35184	-1.43153	1.08367	1.35838	0.945933	-0.142156	-0.0731056	-0.107522	1.12339	-0.561742	0	0	-0.0609861	-0.0348132	-0.384737	0.326101	-0.23448	0	0	-0.345441	0.056772	-0.118845	-0.0802775	-0.0560964	-0.652963	0.568748	0.718672	0	0	-0.173811	-0.313284	0.163906	0.720086	1.40945	0	0
0.11	-0.0774597	1.35048	-1.4269	1.08489	1.34912	0.947182	-0.111124	-0.0785126	-0.107977	1.16152	-0.541325	0	0	-0.0778932	-0.0357445	-0.384958	0.316817	-0.23221	0	0	-0.347979	0.0583572	-0.122541	-0.0785272	-0.0573249	-0.652644	0.568384	0.720869	0	0	-0.166411	-0.316445	0.166343	0.724206	1.41282	0	0
0.12	-0.0842615	1.34879	-1.41957	1.08611	1.34	0.948474	-0.0814522	-0.081992	-0.107674	1.19325	-0.517796	0	0	-0.0955461	-0.0371533	-0.386214	0.307238	-0.230078	0	0	-0.351041	0.0608022	-0.125956	-0.0771949	-0.058934	-0.651346	0.568302	0.72315	0	0	-0.157718	-0.319093	0.16839	0.727546	1.41663	0	0
0.13	-0.0938149	1.34731	-1.40915	1.08734	1.33095	0.949706	-0.052311	-0.0836503	-0.107322	1.21894	-0.498203	0	0	-0.113061	-0.0386243	-0.388375	0.298	-0.227028	0	0	-0.35372	0.0640306	-0.12944	-0.0763789	-0.0606426	-0.649854	0.568492	0.725128	0	0	-0.147934	-0.321281	0.170206	0.729674	1.42139	0	0
0.14	-0.105671	1.3475	-1.39378	1.08877	1.32198	0.950776	-0.0229399	-0.084132	-0.109378	1.23738	-0.483009	0	0	-0.128045	-0.0400288	-0.387098	0.28977	-0.222686	0	0	-0.354375	0.0683904	-0.134642	-0.0759523	-0.0623106	-0.648611	0.567851	0.726601	0	0	-0.136605	-0.322845	0.171638	0.729558	1.42645	0	0
0.15	-0.118886	1.3481	-1.37722	1.09017	1.31305	0.95169	0.00625098	-0.084166	-0.111418	1.2496	-0.473808	0	0	-0.142541	-0.0415527	-0.386572	0.281489	-0.218356	0	0	-0.354241	0.0730854	-0.139344	-0.0758334	-0.0639238	-0.647328	0.567404	0.727269	0	0	-0.124487	-0.32408	0.173139	0.728777	1.43064	0	0
0.16	-0.134392	1.34948	-1.35905	1.09139	1.30416	0.95241	0.0360662	-0.0833873	-0.112784	1.25682	-0.466366	0	0	-0.155834	-0.0437894	-0.386701	0.273441	-0.213676	0	0	-0.35304	0.0779573	-0.142768	-0.0762261	-0.0653869	-0.646029	0.567299	0.727196	0	0	-0.111326	-0.324958	0.174686	0.727034	1.43469	0	0
0.17	-0.152804	1.35097	-1.33826	1.09248	1.29529	0.953005	0.0653239	-0.0814142	-0.113848	1.25898	-0.458875	0	0	-0.168397	-0.0473097	-0.38699	0.265735	-0.209262	0	0	-0.351541	0.0833435	-0.145216	-0.0769571	-0.0667362	-0.644459	0.567485	0.726629	0	0	-0.097187	-0.325326	0.175915	0.724483	1.43813	0	0
0.18	-0.172384	1.35191	-1.31584	1.09356	1.28645	0.953562	0.0926997	-0.0787548	-0.115357	1.25619	-0.450139	0	0	-0.181057	-0.0516425	-0.386151	0.25787	-0.205449	0	0	-0.350513	0.0892805	-0.147549	-0.0777814	-0.0679482	-0.642975	0.568006	0.725421	0	0	-0.0823985	-0.325256	0.176736	0.721733	1.44104	0	0
0.19	-0.191971	1.35221	-1.29317	1.09464	1.27763	0.954063	0.11771	-0.0756218	-0.117277	1.24893	-0.43743	0	0	-0.194182	-0.0564326	-0.384974	0.249823	-0.202065	0	0	-0.350128	0.0954489	-0.1499	-0.0785735	-0.0689371	-0.64176	0.569109	0.723679	0	0	-0.0675587	-0.324892	0.176612	0.71954	1.44318	0	0
